<svg xmlns="http://www.w3.org/2000/svg" viewBox="0 0 1000 1000"><defs><style>.a{fill:#4f2f12;}.b{fill:#fff;}</style></defs><path class="a" d="M500,974.56c-8.81-9-25.77-29.17-52-68-33-48.94-67.87-108.82-98.15-168.62C312,663.17,281.77,590.23,260,521.12c-25.86-82-39-156.29-39-220.87,0-70.17,27.49-140.15,75.42-192a267,267,0,0,1,87.64-63c35.61-15.9,74.62-24,115.94-24,174.64,0,279,141.86,279,279,0,64.58-13.11,138.89-39,220.87-21.8,69.11-52,142-89.91,216.81C619.84,797.73,585,857.61,552,906.55,525.77,945.39,508.81,965.55,500,974.56ZM500,162c-76.09,0-138,61.91-138,138s61.91,138,138,138,138-61.91,138-138S576.09,162,500,162Z"/><path class="b" d="M500,42.25c38.59,0,74.87,7.45,107.82,22.14a245.06,245.06,0,0,1,80.68,58.08c44.17,47.9,69.5,112.69,69.5,177.78,0,61.37-12.36,132.21-36.74,210.54-20.83,66.9-49.85,137.72-86.26,210.48-29.25,58.43-63.24,117.56-95.72,166.48-16.67,25.1-29.74,42.8-39.28,54.76-9.54-12-22.61-29.66-39.28-54.76-32.48-48.92-66.47-108-95.72-166.48-36.41-72.76-65.43-143.58-86.26-210.48C254.36,432.46,242,361.62,242,300.25c0-64.94,25.46-129.73,69.84-177.74a246.29,246.29,0,0,1,80.78-58.13c32.9-14.68,69-22.13,107.38-22.13M500,459c87.67,0,159-71.33,159-159S587.67,141,500,141,341,212.33,341,300s71.33,159,159,159M500,.25c-184,0-300,150-300,300,0,300,270.5,699.5,299.5,699.5h1c29,0,299.5-399.5,299.5-699.5,0-150-115-300-300-300ZM500,417A117,117,0,1,1,617,300,117,117,0,0,1,500,417Z"/></svg>